<?xml version="1.0" standalone="no"?>
<!DOCTYPE svg PUBLIC "-//W3C//DTD SVG 20010904//EN"
 "http://www.w3.org/TR/2001/REC-SVG-20010904/DTD/svg10.dtd">
<svg version="1.0" xmlns="http://www.w3.org/2000/svg"
 width="512.000000pt" height="512.000000pt" viewBox="0 0 512.000000 512.000000"
 preserveAspectRatio="xMidYMid meet">

<g transform="translate(0.000000,512.000000) scale(0.100000,-0.100000)"
fill="#000000" stroke="none">
<path d="M3304 4795 c-85 -15 -127 -28 -212 -67 l-64 -28 -71 17 c-91 22 -232
22 -317 0 -98 -26 -203 -82 -272 -145 -108 -100 -424 -488 -468 -574 -125
-250 -78 -555 116 -753 l56 -57 -37 -80 c-35 -76 -75 -210 -75 -250 0 -10 -3
-18 -8 -18 -4 0 -52 44 -106 99 l-98 99 17 68 c65 259 -125 504 -390 504 -180
0 -334 -114 -385 -286 -11 -36 -18 -43 -54 -54 -113 -33 -205 -114 -259 -228
-29 -62 -32 -75 -32 -167 0 -87 4 -107 27 -158 56 -120 180 -216 307 -236 62
-10 152 -1 207 19 26 10 54 -1 54 -21 0 -4 -27 -50 -61 -101 -85 -131 -190
-350 -243 -508 -107 -318 -115 -632 -22 -902 14 -41 26 -77 26 -80 0 -11 -124
-47 -214 -63 -56 -9 -152 -15 -258 -15 -131 0 -176 -3 -198 -15 -36 -19 -52
-47 -52 -92 0 -109 248 -288 492 -355 73 -20 108 -23 250 -23 171 1 220 9 353
57 l57 21 60 -27 c151 -68 134 -66 575 -66 448 0 467 2 562 67 78 52 137 140
151 226 7 41 8 42 53 45 l46 3 12 -43 c34 -115 115 -207 229 -261 61 -29 76
-32 163 -32 90 0 99 2 171 38 90 44 165 121 199 203 l22 52 69 -89 c85 -113
107 -133 188 -172 58 -29 74 -32 155 -32 82 0 97 3 156 32 79 39 140 102 177
181 23 49 27 70 27 152 l0 95 -92 206 -93 207 0 88 c0 49 9 244 19 432 l19
344 51 101 c62 123 96 253 106 398 l7 106 42 13 c22 7 68 26 101 42 224 113
358 333 357 587 0 86 -9 129 -76 399 -83 332 -108 395 -196 501 -89 107 -207
177 -364 217 -58 14 -68 21 -111 73 -200 243 -537 363 -851 306z m341 -180
c248 -63 454 -265 525 -515 25 -86 33 -313 45 -1150 7 -451 6 -467 -14 -545
-74 -280 -274 -489 -551 -577 -66 -20 -93 -23 -225 -22 -122 1 -167 6 -245 26
-67 17 -95 28 -95 39 0 8 36 170 80 361 l80 346 52 7 c116 14 237 107 291 223
62 131 17 275 -103 335 -16 8 -102 31 -190 52 -184 43 -232 42 -304 -3 -117
-71 -151 -215 -90 -379 22 -57 90 -140 143 -172 l33 -21 -83 -356 c-45 -196
-85 -359 -88 -362 -14 -14 -265 59 -353 103 -162 80 -309 241 -375 413 -73
188 -76 384 -7 567 32 85 663 1299 705 1357 78 106 214 206 346 254 122 45
294 52 423 19z m-852 -98 c-72 -78 -118 -159 -379 -665 l-259 -502 -34 37
c-49 55 -99 166 -112 251 -13 91 1 185 40 269 36 75 399 514 464 561 79 56
176 90 266 91 l54 1 -40 -43z m1579 -328 c65 -33 154 -129 188 -201 40 -85
170 -612 170 -687 0 -75 -24 -173 -58 -235 -40 -73 -126 -157 -202 -195 l-65
-32 -6 24 c-3 13 -10 228 -13 478 -9 537 -18 709 -44 802 -11 37 -17 67 -15
67 2 0 23 -10 45 -21z m-2877 -784 c55 -32 101 -99 111 -161 6 -45 -1 -83 -32
-164 -12 -31 -15 -55 -10 -75 5 -20 71 -94 201 -225 186 -189 193 -197 200
-244 25 -176 130 -373 274 -516 126 -125 273 -205 466 -254 l99 -25 256 -256
c185 -184 263 -255 280 -257 43 -2 64 2 114 23 107 46 220 11 291 -90 27 -38
30 -51 30 -114 -1 -54 -6 -82 -22 -112 -40 -75 -114 -125 -185 -125 -52 0 -95
-32 -107 -80 -6 -22 -15 -57 -21 -78 -15 -57 -49 -103 -104 -137 -42 -25 -59
-30 -116 -30 -57 0 -74 5 -115 30 -110 68 -143 179 -90 304 19 45 24 72 20 95
-5 24 -191 215 -868 894 -474 475 -874 870 -889 878 -37 20 -57 18 -122 -11
-69 -31 -152 -33 -212 -6 -84 38 -142 142 -132 235 11 91 96 188 177 202 119
20 134 33 158 138 19 85 60 140 126 172 69 33 155 29 222 -11z m616 -1791
c724 -724 737 -737 727 -765 -10 -28 -13 -29 -74 -29 l-64 0 -19 38 c-30 58
-99 122 -169 155 -55 26 -78 30 -175 34 l-112 5 -165 163 c-97 96 -176 166
-191 170 -66 16 -127 -62 -95 -122 8 -15 90 -103 183 -194 193 -192 207 -199
365 -199 121 0 170 -25 212 -107 20 -39 21 -122 2 -166 -18 -44 -77 -94 -126
-107 -27 -7 -170 -10 -423 -8 l-382 3 -77 37 c-252 120 -408 316 -480 605 -30
118 -32 365 -4 493 42 197 135 422 258 628 34 56 64 102 67 102 3 0 337 -331
742 -736z m1939 184 c0 -24 -7 -163 -15 -310 -11 -204 -12 -280 -4 -319 6 -29
50 -138 98 -243 74 -165 86 -198 86 -246 0 -129 -112 -221 -232 -190 -65 16
-88 34 -155 123 l-60 79 51 45 c35 31 62 67 88 121 37 74 38 79 38 186 0 102
-2 115 -29 168 -40 79 -116 152 -205 196 -70 34 -81 37 -160 36 -52 0 -102 -7
-127 -16 l-41 -16 -124 124 c-68 68 -118 124 -112 124 6 0 40 -6 75 -14 215
-49 449 -18 651 86 43 22 97 55 120 74 23 18 45 33 50 33 4 1 7 -18 7 -41z"/>
<path d="M2915 3948 c-85 -31 -147 -94 -171 -174 -21 -72 -18 -101 15 -135 56
-56 131 -27 144 57 14 86 111 121 164 60 23 -27 25 -35 19 -100 -6 -75 0 -92
41 -114 88 -47 164 68 134 203 -28 124 -139 216 -259 214 -32 0 -70 -5 -87
-11z"/>
<path d="M3696 3765 c-86 -31 -147 -94 -172 -183 -19 -63 -11 -105 23 -132 55
-43 128 -11 139 62 10 60 43 93 93 93 31 0 47 -7 68 -27 28 -29 33 -61 18
-130 -7 -33 -4 -40 23 -68 32 -32 68 -38 104 -19 29 16 58 86 58 145 1 187
-182 321 -354 259z"/>
</g>
</svg>
